<?xml version="1.0" standalone="no"?>
<!DOCTYPE svg PUBLIC "-//W3C//DTD SVG 20010904//EN"
 "http://www.w3.org/TR/2001/REC-SVG-20010904/DTD/svg10.dtd">
<svg version="1.0" xmlns="http://www.w3.org/2000/svg"
 width="90.000000pt" height="90.000000pt" viewBox="0 0 90.000000 90.000000"
 preserveAspectRatio="xMidYMid meet">

<g transform="translate(0.000000,90.000000) scale(0.100000,-0.100000)"
fill="#000000" stroke="none">
<path d="M25 870 c-19 -21 -15 -25 400 -440 l419 -419 23 21 24 22 -90 91 -90
90 45 33 c48 36 144 157 144 182 0 23 -101 141 -162 188 -29 22 -85 56 -123
74 -64 30 -78 33 -165 33 -78 -1 -105 -5 -148 -24 l-54 -24 -96 96 c-54 54
-100 97 -103 97 -3 0 -14 -9 -24 -20z m510 -229 c107 -48 158 -198 99 -289
l-16 -24 -42 41 c-36 36 -41 46 -38 76 3 28 -2 40 -27 65 -25 25 -38 31 -66
29 -29 -3 -41 3 -75 36 -44 43 -41 58 14 74 50 15 108 12 151 -8z"/>
<path d="M99 583 c-53 -56 -99 -119 -99 -134 0 -25 98 -147 149 -188 102 -80
224 -118 341 -107 36 3 75 9 88 12 23 7 23 7 -14 45 -37 37 -39 39 -90 33
-135 -16 -246 94 -231 228 7 52 6 53 -40 100 -26 27 -52 48 -58 48 -6 0 -27
-17 -46 -37z"/>
</g>
</svg>
